<svg width="64" height="64" viewBox="0 0 64 64" fill="none" xmlns="http://www.w3.org/2000/svg">
<path fill-rule="evenodd" clip-rule="evenodd" d="M31.88 56L30.9184 55.952L29.9637 55.8277L29.0221 55.6283L28.0993 55.3558L27.2008 55.013L26.3318 54.6033L25.4969 54.1306L24.7004 53.5993L23.9457 53.0144L23.2358 52.3812L22.5731 51.7052L22.4198 51.5271L22.2216 51.5187L21.2852 51.4175L20.3525 51.2524L19.4291 51.0215L18.5211 50.7242L17.6346 50.3601L16.7754 49.9298L15.9497 49.4345L15.1632 48.8763L14.4214 48.2578L13.7294 47.5825L13.0921 46.8541L12.5134 46.0774L11.997 45.2574L11.5458 44.3994L11.1621 43.5092L10.8474 42.5927L10.6025 41.6561L10.4273 40.7054L10.3214 39.7467L10.2833 38.7857L10.3111 37.8284L10.4021 36.8799L10.485 36.367L10.2466 36.0273L9.75252 35.2162L9.31119 34.369L8.92728 33.4893L8.60507 32.5814L8.34834 31.65L8.1603 30.7002L8.04354 29.7375L8 28.7678L8.0309 27.797L8.13673 26.8311L8.31722 25.8765L8.57137 24.9392L8.89746 24.025L9.29301 23.1396L9.75494 22.2883L10.2795 21.4759L10.8624 20.7069L11.4989 19.9849L12.1839 19.3132L12.9119 18.6943L13.6771 18.1302L14.4738 17.6219L14.7383 17.4765L14.7755 17.3361L15.0761 16.4352L15.4374 15.5516L15.8597 14.6912L16.3427 13.8602L16.8853 13.0643L17.4859 12.3096L18.1419 11.6015L18.8503 10.9454L19.6075 10.3463L20.409 9.80841L21.2502 9.33575L22.1258 8.93153L23.03 8.59828L23.9571 8.33783L24.9009 8.15124L25.8554 8.03878L26.8142 8L27.7716 8.03364L28.7217 8.13777L29.6589 8.30978L30.5783 8.54643L31.4751 8.84395L31.9998 9.05751L32.3054 8.92734L33.1959 8.61527L34.11 8.36303L35.0433 8.17453L35.9907 8.05315L36.9468 8.00169L37.9058 8.02222L38.862 8.11618L39.809 8.28424L40.7409 8.52629L41.6514 8.84147L42.5346 9.22817L43.3849 9.684L44.1969 10.2059L44.9655 10.7901L45.6865 11.4324L46.3559 12.128L46.9706 12.8716L47.5279 13.6577L48.0259 14.4805L48.4635 15.3341L48.84 16.2125L49.1557 17.1096L49.2565 17.4682L49.3235 17.5036L50.1272 17.9979L50.9008 18.5482L51.6386 19.1535L52.3349 19.8122L52.984 20.5218L53.5808 21.2795L54.1204 22.0814L54.5983 22.9234L55.0108 23.8007L55.3545 24.7083L55.6268 25.6404L55.8259 26.5912L55.9504 27.5548L56 28.525L55.975 29.4955L55.8764 30.4605L55.7059 31.4141L55.4661 32.3506L55.1599 33.2648L54.791 34.1519L54.3637 35.0076L53.8823 35.8281L53.5169 36.3669L53.5663 36.6448L53.6727 37.5902L53.7165 38.5459L53.6951 39.5064L53.6063 40.4662L53.4486 41.4195L53.2211 42.3603L52.9238 43.2823L52.5572 44.1796L52.1227 45.0462L51.6224 45.8763L51.059 46.6643L50.4359 47.4052L49.7572 48.0942L49.0274 48.7273L48.2515 49.3008L47.4351 49.812L46.5837 50.2587L45.7035 50.6394L44.8003 50.9535L43.8802 51.2009L42.9492 51.3823L42.0132 51.4994L41.5805 51.5246L41.2665 51.8779L40.5918 52.5437L39.8705 53.1654L39.105 53.7373L38.2985 54.2544L37.4547 54.7118L36.5779 55.1051L35.6728 55.4306L34.7447 55.6851L33.7993 55.8658L32.8423 55.9712L31.88 56ZM43.3876 49.0741L44.1579 48.8669L44.9111 48.6051L45.6426 48.2887L46.3477 47.9187L47.0223 47.4963L47.662 47.0234L48.2629 46.5021L48.8214 45.9352L49.334 45.3257L49.7979 44.6768L50.2103 43.9926L50.5692 43.2768L50.8727 42.5339L51.1196 41.7683L51.3091 40.9845L51.4411 40.1873L51.5156 39.3814L51.531 38.6917L51.5212 38.7016L50.8498 39.3094L50.1572 39.8718L49.4444 40.393L48.3715 41.0837L47.2881 41.6857L46.2161 42.2037L45.6839 42.4299L45.6738 42.4983L45.4445 43.6561L45.1435 44.8462L44.7577 46.0589L44.2788 47.2726L43.8978 48.0878L43.4712 48.8877L43.3542 49.0806L43.3876 49.0741ZM46.0107 39.8798L46.2827 39.7484L47.2499 39.2109L48.209 38.5935L48.8249 38.1433L49.429 37.6527L50.0116 37.1253L50.5682 36.5614L51.0942 35.9619L51.1868 35.8423L51.075 35.3813L50.8404 34.6161L50.5643 33.8707L50.2507 33.1477L49.9064 32.4551L49.3287 31.451L48.7035 30.5154L48.2365 29.8996L47.4301 32.1683L46.9951 33.4611L46.723 34.4385L46.5117 35.4181L46.3533 36.4288L46.0658 39.3531L46.0107 39.8798ZM49.0541 27.4582L49.7462 28.2797L50.4813 29.2491L51.1833 30.2996L51.8306 31.4245L52.2297 32.2274L52.5896 33.0571L52.7214 33.413L52.8055 33.2446L53.1157 32.4986L53.3722 31.7327L53.5724 30.9509L53.7142 30.1573L53.7961 29.3563L53.8168 28.5526L53.7758 27.7506L53.673 26.9551L53.5088 26.1706L53.2841 25.4016L53.0004 24.6525L52.6595 23.9275L52.2639 23.2305L51.8163 22.5652L51.3199 21.935L50.7782 21.3429L50.1952 20.7913L49.8084 20.474L49.8366 20.7702L49.8729 21.6767L49.8622 22.5704L49.8081 23.453L49.6572 24.722L49.4345 25.9423L49.1573 27.1002L49.0541 27.4582ZM46.4869 16.2611L46.1195 15.5443L45.7023 14.855L45.2374 14.1993L44.7268 13.5815L44.1726 13.0057L43.5777 12.4757L42.945 11.9948L42.278 11.5661L41.5802 11.192L40.8558 10.8749L40.1087 10.6163L39.3434 10.4175L38.5642 10.2792L37.7756 10.2017L36.9821 10.1847L36.1882 10.2274L35.3983 10.3286L34.6495 10.4799L34.7606 10.5511L35.4925 11.0815L36.1901 11.6462L37.1486 12.5268L38.0228 13.4487L38.8103 14.3887L39.5188 15.3322L39.5968 15.4477L40.4748 15.4122L41.676 15.4248L42.9211 15.5122L44.1915 15.6876L45.0605 15.8622L45.9269 16.0842L46.4869 16.2611ZM37.0553 15.6911L36.3935 14.9012L35.6172 14.0826L34.7644 13.2991L34.1651 12.8139L33.5301 12.3539L32.866 11.9274L32.1745 11.539L32.0022 11.4556L31.6509 11.6323L30.9661 12.0306L30.309 12.4659L29.6816 12.9337L29.09 13.4254L28.2492 14.2166L27.4847 15.0405L26.9475 15.6941L28.206 15.8545L29.9125 16.0756L30.9452 16.167L31.9388 16.2012L32.9298 16.1746L33.954 16.09L35.9468 15.8333L37.0553 15.6911ZM24.4035 15.4447L25.0672 14.5459L25.8407 13.6046L26.7002 12.6784L27.6438 11.7905L28.3314 11.219L29.0535 10.6806L29.3511 10.4834L29.1895 10.4418L28.4055 10.2979L27.6142 10.2112L26.8201 10.1833L26.0274 10.2154L25.2406 10.308L24.4645 10.4615L23.7033 10.6753L22.9615 10.9487L22.2434 11.2803L21.553 11.6682L20.8942 12.1102L20.2706 12.6037L19.6855 13.1455L19.1421 13.7322L18.6427 14.3598L18.1896 15.0243L17.7845 15.7213L17.5205 16.2593L17.8572 16.1476L18.7237 15.9131L19.5942 15.7264L20.8686 15.535L22.1199 15.4338L23.3291 15.4098L24.4035 15.4447ZM14.1933 20.4685L13.6561 20.9253L13.083 21.4872L12.5524 22.0891L12.0678 22.7284L11.6329 23.4019L11.2507 24.1062L10.924 24.8377L10.6548 25.5922L10.4452 26.3654L10.2963 27.1532L10.2089 27.9507L10.1833 28.7535L10.2194 29.557L10.3163 30.3565L10.473 31.1476L10.6875 31.9258L10.9577 32.6871L11.2756 33.4156L11.3274 33.2693L11.6775 32.4319L12.0651 31.6263L12.4822 30.8602L12.712 30.4717L13.3997 29.4185L14.1305 28.4357L14.8815 27.5298L14.9455 27.4599L14.699 26.5293L14.447 25.3396L14.2578 24.0906L14.1482 22.7975L14.1262 21.9015L14.1505 20.9979L14.1933 20.4685ZM15.7485 29.9161L15.1901 30.667L14.5652 31.624L14.3798 31.9374L14.0074 32.6217L13.6683 33.3262L13.3637 34.055L13.0976 34.8057L12.874 35.5753L12.8142 35.8391L13.0349 36.1151L13.569 36.7058L14.1325 37.2606L14.7209 37.7788L15.3245 38.2561L16.2716 38.914L17.2335 39.4888L18.0111 39.8914L17.7582 37.3933L17.5935 36.0452L17.4165 35.0482L17.1829 34.0732L16.8875 33.089L15.7485 29.9161ZM18.3207 42.4382L18.3147 42.4358L17.251 41.9546L16.1714 41.3958L15.0883 40.7484L14.0243 40.0094L13.3223 39.4543L12.6451 38.8578L12.4689 38.6844L12.4663 38.7742L12.4984 39.5834L12.5873 40.3876L12.7335 41.1819L12.9375 41.9615L13.1986 42.7219L13.5161 43.4585L13.8885 44.1667L14.314 44.8426L14.7903 45.4818L15.3148 46.081L15.8842 46.6369L16.4952 47.1463L17.1439 47.6067L17.8266 48.0162L18.5388 48.3728L19.2761 48.6757L20.034 48.9239L20.6461 49.0769L20.4182 48.689L20.0039 47.8861L19.6373 47.0751L19.3143 46.2559L18.9153 45.0471L18.601 43.8523L18.3612 42.6909L18.3207 42.4382ZM25.4277 51.4028L25.9755 51.8273L26.6412 52.2713L27.3359 52.6646L28.0561 53.0042L28.798 53.2873L29.5578 53.5116L30.3312 53.6754L31.114 53.7773L31.9018 53.8166L32.6901 53.793L33.4745 53.7067L34.2507 53.5582L35.0142 53.3489L35.761 53.0804L36.487 52.7547L37.1884 52.3745L37.8617 51.9428L38.5037 51.4631L38.5723 51.4039L38.3255 51.3727L37.4412 51.2098L36.5797 51.0028L35.7383 50.755L34.5451 50.3261L33.4149 49.8362L32.354 49.3041L32.0053 49.1052L31.1238 49.5749L30.0296 50.0874L28.8642 50.5502L27.6386 50.9432L26.7771 51.162L25.8982 51.3363L25.4277 51.4028ZM34.1746 47.7764L34.3386 47.8587L35.3489 48.2966L36.4161 48.6803L37.143 48.8943L37.894 49.0747L38.6605 49.2159L39.4394 49.3146L40.2273 49.3674L40.534 49.3691L40.7098 49.1444L41.1626 48.487L41.5745 47.8079L41.9456 47.1119L42.274 46.4094L42.701 45.327L43.0445 44.2474L43.2833 43.3031L40.9104 44.1252L39.6531 44.5885L38.7365 44.9859L37.8522 45.4348L36.9709 45.9474L35.0476 47.2055L34.1746 47.7764ZM32.2408 46.4342L32.0025 46.5762L29.0213 44.6288L27.8073 43.8678L26.8202 43.32L25.8104 42.8364L24.7575 42.4059L21.9642 41.455L21.9592 41.4533L20.4313 40.9248L20.3036 40.8745L19.9266 37.1511L19.7521 35.722L19.5533 34.603L19.2903 33.5051L18.9607 32.4068L17.5045 28.3529L17.3976 28.0137L17.453 27.9533L18.8277 26.5846L18.8349 26.5775L20.3269 25.1197L21.1178 24.2856L21.8505 23.4282L22.5291 22.5299L23.1678 21.5783L24.5497 19.2756L24.5532 19.2697L25.3983 17.8815L25.5063 17.7194L25.7146 17.7364L27.9257 18.0182L29.6759 18.2449L30.8113 18.3455L31.9306 18.384L33.049 18.3539L34.1833 18.2603L36.225 17.9973L38.121 17.754L38.4993 17.7209L38.5115 17.739L39.5259 19.4027L39.5318 19.4125L40.6036 21.2128L41.2292 22.1807L41.8898 23.0967L42.6015 23.9681L43.3737 24.8118L45.2793 26.6875L45.2831 26.6913L46.4309 27.8322L46.5936 28.0076L45.3682 31.455L44.9089 32.8202L44.6039 33.9154L44.3659 35.0188L44.1882 36.153L43.8959 39.126L43.7247 40.7617L43.7123 40.8455L40.176 42.0707L38.8413 42.5625L37.8079 43.0105L36.8091 43.5175L35.8245 44.0903L33.8533 45.3797L32.2408 46.4342ZM47.2744 25.5944L47.2989 25.4921L47.4988 24.3971L47.6342 23.2573L47.6813 22.4906L47.6906 21.7074L47.659 20.9173L47.5835 20.124L47.4621 19.3316L47.3814 18.9565L46.8125 18.6997L46.0746 18.4188L45.3272 18.1828L44.5745 17.9899L43.8269 17.8397L42.6953 17.6834L41.5882 17.6058L40.9817 17.5994L41.4006 18.2866L42.4577 20.0622L43.0313 20.9497L43.621 21.7673L44.2524 22.5404L44.9447 23.2969L46.8137 25.1364L46.8174 25.1402L47.2744 25.5944ZM23.0166 17.5981L22.2297 17.6138L21.1189 17.7036L19.9853 17.8739L19.2378 18.0342L18.4861 18.2377L17.7406 18.4848L17.0058 18.7771L16.6174 18.9596L16.5038 19.5294L16.3941 20.3223L16.3298 21.1153L16.3087 21.904L16.3277 22.6786L16.4257 23.8348L16.5946 24.9498L16.731 25.5935L17.3029 25.0242L18.7724 23.5882L19.4958 22.8253L20.1492 22.0607L20.7515 21.2635L21.3255 20.4083L22.6825 18.1471L22.686 18.1412L23.0166 17.5981ZM20.7259 43.3538L20.7217 43.3338L21.2511 43.5169L23.9924 44.4501L24.9255 44.8316L25.8187 45.2594L26.6978 45.7473L27.8452 46.4665L29.8377 47.7681L29.1635 48.0838L28.1276 48.4952L27.0364 48.8451L26.296 49.0331L25.5331 49.1845L24.7571 49.2941L23.9711 49.3586L23.4671 49.3693L23.1739 48.9823L22.7313 48.3191L22.3297 47.6354L21.9686 46.9358L21.6474 46.2252L21.3667 45.5132L21.0082 44.4271L20.7259 43.3538Z" fill="#18181B"/>
<path d="M29 30V37H27V27H29L35 34V27.0141H37V37H35L29 30Z" fill="#18181B"/>
</svg>
