<svg width="128" height="64" viewBox="0 0 128 64" fill="none" xmlns="http://www.w3.org/2000/svg">
<path d="M21.256 26.608C22.856 26.608 24.152 27.096 25.144 28.072C26.136 29.032 26.632 30.424 26.632 32.248V40H24.472V32.56C24.472 31.248 24.144 30.248 23.488 29.56C22.832 28.856 21.936 28.504 20.8 28.504C19.648 28.504 18.728 28.864 18.04 29.584C17.368 30.304 17.032 31.352 17.032 32.728V40H14.848V26.848H17.032V28.72C17.464 28.048 18.048 27.528 18.784 27.16C19.536 26.792 20.36 26.608 21.256 26.608ZM35.9356 40.216C34.7036 40.216 33.5836 39.936 32.5756 39.376C31.5836 38.816 30.7996 38.024 30.2236 37C29.6636 35.96 29.3836 34.76 29.3836 33.4C29.3836 32.056 29.6716 30.872 30.2476 29.848C30.8396 28.808 31.6396 28.016 32.6476 27.472C33.6556 26.912 34.7836 26.632 36.0316 26.632C37.2796 26.632 38.4076 26.912 39.4156 27.472C40.4236 28.016 41.2156 28.8 41.7916 29.824C42.3836 30.848 42.6796 32.04 42.6796 33.4C42.6796 34.76 42.3756 35.96 41.7676 37C41.1756 38.024 40.3676 38.816 39.3436 39.376C38.3196 39.936 37.1836 40.216 35.9356 40.216ZM35.9356 38.296C36.7196 38.296 37.4556 38.112 38.1436 37.744C38.8316 37.376 39.3836 36.824 39.7996 36.088C40.2316 35.352 40.4476 34.456 40.4476 33.4C40.4476 32.344 40.2396 31.448 39.8236 30.712C39.4076 29.976 38.8636 29.432 38.1916 29.08C37.5196 28.712 36.7916 28.528 36.0076 28.528C35.2076 28.528 34.4716 28.712 33.7996 29.08C33.1436 29.432 32.6156 29.976 32.2156 30.712C31.8156 31.448 31.6156 32.344 31.6156 33.4C31.6156 34.472 31.8076 35.376 32.1916 36.112C32.5916 36.848 33.1196 37.4 33.7756 37.768C34.4316 38.12 35.1516 38.296 35.9356 38.296ZM47.7351 29.296C48.1831 28.512 48.8391 27.872 49.7031 27.376C50.5671 26.88 51.5511 26.632 52.6551 26.632C53.8391 26.632 54.9031 26.912 55.8471 27.472C56.7911 28.032 57.5351 28.824 58.0791 29.848C58.6231 30.856 58.8951 32.032 58.8951 33.376C58.8951 34.704 58.6231 35.888 58.0791 36.928C57.5351 37.968 56.7831 38.776 55.8231 39.352C54.8791 39.928 53.8231 40.216 52.6551 40.216C51.5191 40.216 50.5191 39.968 49.6551 39.472C48.8071 38.976 48.1671 38.344 47.7351 37.576V40H45.5511V22.24H47.7351V29.296ZM56.6631 33.376C56.6631 32.384 56.4631 31.52 56.0631 30.784C55.6631 30.048 55.1191 29.488 54.4311 29.104C53.7591 28.72 53.0151 28.528 52.1991 28.528C51.3991 28.528 50.6551 28.728 49.9671 29.128C49.2951 29.512 48.7511 30.08 48.3351 30.832C47.9351 31.568 47.7351 32.424 47.7351 33.4C47.7351 34.392 47.9351 35.264 48.3351 36.016C48.7511 36.752 49.2951 37.32 49.9671 37.72C50.6551 38.104 51.3991 38.296 52.1991 38.296C53.0151 38.296 53.7591 38.104 54.4311 37.72C55.1191 37.32 55.6631 36.752 56.0631 36.016C56.4631 35.264 56.6631 34.384 56.6631 33.376ZM73.7699 32.92C73.7699 33.336 73.7459 33.776 73.6979 34.24H63.1859C63.2659 35.536 63.7059 36.552 64.5059 37.288C65.3219 38.008 66.3059 38.368 67.4579 38.368C68.4019 38.368 69.1859 38.152 69.8099 37.72C70.4499 37.272 70.8979 36.68 71.1539 35.944H73.5059C73.1539 37.208 72.4499 38.24 71.3939 39.04C70.3379 39.824 69.0259 40.216 67.4579 40.216C66.2099 40.216 65.0899 39.936 64.0979 39.376C63.1219 38.816 62.3539 38.024 61.7939 37C61.2339 35.96 60.9539 34.76 60.9539 33.4C60.9539 32.04 61.2259 30.848 61.7699 29.824C62.3139 28.8 63.0739 28.016 64.0499 27.472C65.0419 26.912 66.1779 26.632 67.4579 26.632C68.7059 26.632 69.8099 26.904 70.7699 27.448C71.7299 27.992 72.4659 28.744 72.9779 29.704C73.5059 30.648 73.7699 31.72 73.7699 32.92ZM71.5139 32.464C71.5139 31.632 71.3299 30.92 70.9619 30.328C70.5939 29.72 70.0899 29.264 69.4499 28.96C68.8259 28.64 68.1299 28.48 67.3619 28.48C66.2579 28.48 65.3139 28.832 64.5299 29.536C63.7619 30.24 63.3219 31.216 63.2099 32.464H71.5139ZM75.8367 33.376C75.8367 32.032 76.1087 30.856 76.6527 29.848C77.1967 28.824 77.9407 28.032 78.8847 27.472C79.8447 26.912 80.9087 26.632 82.0767 26.632C83.2287 26.632 84.2287 26.88 85.0767 27.376C85.9247 27.872 86.5567 28.496 86.9727 29.248V26.848H89.1807V40H86.9727V37.552C86.5407 38.32 85.8927 38.96 85.0287 39.472C84.1807 39.968 83.1887 40.216 82.0527 40.216C80.8847 40.216 79.8287 39.928 78.8847 39.352C77.9407 38.776 77.1967 37.968 76.6527 36.928C76.1087 35.888 75.8367 34.704 75.8367 33.376ZM86.9727 33.4C86.9727 32.408 86.7727 31.544 86.3727 30.808C85.9727 30.072 85.4287 29.512 84.7407 29.128C84.0687 28.728 83.3247 28.528 82.5087 28.528C81.6927 28.528 80.9487 28.72 80.2767 29.104C79.6047 29.488 79.0687 30.048 78.6687 30.784C78.2687 31.52 78.0687 32.384 78.0687 33.376C78.0687 34.384 78.2687 35.264 78.6687 36.016C79.0687 36.752 79.6047 37.32 80.2767 37.72C80.9487 38.104 81.6927 38.296 82.5087 38.296C83.3247 38.296 84.0687 38.104 84.7407 37.72C85.4287 37.32 85.9727 36.752 86.3727 36.016C86.7727 35.264 86.9727 34.392 86.9727 33.4ZM108.687 26.608C109.711 26.608 110.623 26.824 111.423 27.256C112.223 27.672 112.855 28.304 113.319 29.152C113.783 30 114.015 31.032 114.015 32.248V40H111.855V32.56C111.855 31.248 111.527 30.248 110.871 29.56C110.231 28.856 109.359 28.504 108.255 28.504C107.119 28.504 106.215 28.872 105.543 29.608C104.871 30.328 104.535 31.376 104.535 32.752V40H102.375V32.56C102.375 31.248 102.047 30.248 101.391 29.56C100.751 28.856 99.8794 28.504 98.7754 28.504C97.6394 28.504 96.7354 28.872 96.0634 29.608C95.3914 30.328 95.0554 31.376 95.0554 32.752V40H92.8714V26.848H95.0554V28.744C95.4874 28.056 96.0634 27.528 96.7834 27.16C97.5194 26.792 98.3274 26.608 99.2074 26.608C100.311 26.608 101.287 26.856 102.135 27.352C102.983 27.848 103.615 28.576 104.031 29.536C104.399 28.608 105.007 27.888 105.855 27.376C106.703 26.864 107.647 26.608 108.687 26.608Z" fill="#18181B"/>
</svg>
